<svg xmlns="http://www.w3.org/2000/svg" viewBox="0 0 88.37 176.75"><defs><style>.cb266c83-f506-47e1-8589-6db4f132cd6e{fill:#4ca769;}</style></defs><title>element 1</title><g id="8be1d148-fa8d-4e96-9f9d-925c75f72c82" data-name="Layer 2"><g id="91c98be2-e90d-4105-8a19-2eb5f95af3a6" data-name="Layer 2"><path class="cb266c83-f506-47e1-8589-6db4f132cd6e" d="M44.19,0,0,88.38l44.19,88.37L88.37,88.38ZM5.89,88.38l38.3-76.6,38.3,76.6L44.19,165Z"/><path class="cb266c83-f506-47e1-8589-6db4f132cd6e" d="M44.19,23.55,11.78,88.38,44.19,153.2,76.6,88.38ZM17.66,88.38l26.52-53,26.52,53-26.52,53Z"/><path class="cb266c83-f506-47e1-8589-6db4f132cd6e" d="M44.19,47.11,23.55,88.38l20.63,41.27L64.82,88.38ZM29.44,88.38,44.19,58.89,58.93,88.38,44.19,117.86Z"/><path class="cb266c83-f506-47e1-8589-6db4f132cd6e" d="M44.19,70.66,35.33,88.38l8.86,17.71L53,88.38ZM40.76,88.38l3.43-6.86,3.43,6.86-3.43,6.86Z"/></g></g></svg>