<svg xmlns="http://www.w3.org/2000/svg" viewBox="0 0 77.73 155.47"><defs><style>.\36 71eacbb-5e45-4b29-af7d-1f8da8ef1fab{fill:none;}.\38 7806b14-2cfa-4b86-a0e9-182a895343e0{fill:#4ca769;}</style></defs><title>element 2</title><g id="d594776e-f586-49fd-a8ac-d2232ab21e3f" data-name="Layer 2"><g id="bdf627b3-1612-47bc-9d0b-f0d56f10cd39" data-name="Layer 2"><rect class="671eacbb-5e45-4b29-af7d-1f8da8ef1fab" width="77.73" height="155.47"/><polygon class="87806b14-2cfa-4b86-a0e9-182a895343e0" points="0 77.73 38.87 0 41.46 5.18 2.59 82.92 0 77.73"/><polygon class="87806b14-2cfa-4b86-a0e9-182a895343e0" points="5.18 88.1 44.05 10.37 46.64 15.55 7.77 93.28 5.18 88.1"/><polygon class="87806b14-2cfa-4b86-a0e9-182a895343e0" points="10.36 98.47 49.23 20.73 51.82 25.91 12.96 103.65 10.36 98.47"/><polygon class="87806b14-2cfa-4b86-a0e9-182a895343e0" points="15.55 108.83 54.41 31.09 57.01 36.28 18.14 114.01 15.55 108.83"/><polygon class="87806b14-2cfa-4b86-a0e9-182a895343e0" points="20.73 119.19 59.6 41.46 62.19 46.64 23.32 124.38 20.73 119.19"/><polygon class="87806b14-2cfa-4b86-a0e9-182a895343e0" points="25.91 129.56 64.78 51.82 67.37 57.01 28.5 134.74 25.91 129.56"/><polygon class="87806b14-2cfa-4b86-a0e9-182a895343e0" points="31.09 139.92 69.96 62.19 72.55 67.37 33.68 145.1 31.09 139.92"/><polygon class="87806b14-2cfa-4b86-a0e9-182a895343e0" points="36.27 150.29 75.14 72.56 77.73 77.73 38.87 155.47 36.27 150.29"/></g></g></svg>